**ABCDEFGHIJKLMNOPQRSTUVWXYZabcdefghijklmnopqrstuvwxyz**************************
**PARASOLID !"#$%&'()*+,-./:;<=>?@[\]^_`{|}~0123456789**************************
**PART1;
MC=unknown;
MC_MODEL=unknown;
MC_ID=unknown;
OS=unknown;
OS_RELEASE=unknown;
FRU=Parasolid 37.0.209;
APPL=Onshape;
SITE=unknown;
USER=unknown;
FORMAT=text;
GUISE=transmit;
KEY=BTGapi::writeModels_.xmt;
FILE=BTGapi::writeModels_.xmt;
DATE=2025-07-25T20:23:04 (UTC);
**PART2;
SCH=SCH_3700209_36001;
USFLD_SIZE=0;
**PART3;
**END_OF_HEADER*****************************************************************
T51 : TRANSMIT FILE created by modeller version 370020923 SCH_3700209_36001_1300
6231 0 12 36 CCCI7 lattice222 0 CCCI4 mesh1006 0 I8 polyline1008 0 CCCCCCCDI5 ow
ner1040 0 CCCI16 boundary_lattice222 0 CCCI13 boundary_mesh1006 0 I17 boundary_p
olyline1008 0 CCCA16 index_map_offset0 0 1 dA9 index_map82 0 A17 node_id_index_m
ap82 0 A20 schema_embedding_map82 0 A5 child12 0 A14 lowest_node_id0 0 1 dA16 me
sh_offset_data206 0 Z1 1921 2 3 0 0 0 0 0 0 0 1e3 1e-8 0 4 5 1 0 1 2 6 0 7 8 9 0
 0 10 11 12 0 0 0 0 0 0 0 81 255 1 2 1893 13 1 14 0 0 0 15 70 11 CI9 list_type0
 0 1 uI10 notransmit0 0 1 lCCCDCCDI12 finger_index0 0 1 dI12 finger_block1012 0
 CZ3 0 4 T1 0 0 5 20 1 16 16 13 255 6 253 0 1 0 17 0 0 18 0 51 255 7 1379 0 19 2
0 0 0 +.032 -.04 -.01 1 0 0 .01 0 0 -1 31 255 8 1552 0 21 22 0 0 +.005 -.025 -.0
21 -1 0 0 0 0 1 .005 29 255 9 1758 0 12 23 0 .025 -.02887298334620745 -.05 19 9
 CCCCCCI5 frame230 0 CA5 owner12 0 Z10 88 0 1 18 0 24 0 V0 16 255 11 1284 25 ?26
 0 27 22 0 0 1 18 255 12 1754 28 29 0 30 9 ?1 81 1 28 1886 31 12 0 0 32 33 34 17
 255 29 0 35 36 37 12 38 39 0 40 +18 30 1265 41 42 12 43 23 ?1 81 1 41 1411 31 3
0 0 0 44 45 46 17 42 0 47 48 49 30 50 51 0 52 +18 43 1256 53 54 30 55 56 ?1 29 2
3 1268 0 30 56 9 .064 -.05 -.01 29 56 1259 0 43 57 23 .064 0 -.01 29 57 1245 0 5
5 58 56 .059 -.05 -.01 18 55 1242 45 59 43 60 57 ?1 29 58 1241 0 60 61 57 .059 0
 -.01 18 60 1238 62 63 55 64 58 ?1 29 61 1227 0 64 65 58 .064 -.01 0 18 64 1224
 66 67 60 68 61 ?1 29 65 1223 0 68 69 61 .064 -.04 0 18 68 1220 70 71 64 72 65 ?
1 29 69 1219 0 72 73 65 .059 -.01 693889390390723e-32 18 72 1216 74 75 68 76 69
 ?1 29 73 1215 0 76 77 69 .059 -.04 693889390390723e-32 18 76 1212 44 78 72 79 7
3 ?1 29 77 1201 0 79 80 73 .005 -.05 -.01 18 79 1198 81 82 76 83 77 ?1 29 80 119
2 0 83 84 77 .005 0 -.01 18 83 1189 85 86 79 87 80 ?1 29 84 1178 0 87 88 80 0 -.
05 -.01 18 87 1175 89 90 83 91 84 ?1 29 88 1174 0 91 92 84 0 0 -.01 18 91 1171 9
3 94 87 95 88 ?1 29 92 1160 0 95 96 88 .005 -.01 0 18 95 1157 97 98 91 99 92 ?1
 29 96 1156 0 99 100 92 .005 -.04 0 18 99 1153 101 102 95 103 96 ?1 29 100 1152
 0 103 104 96 0 -.01 0 18 103 1149 105 106 99 107 100 ?1 29 104 1148 0 107 108 1
00 0 -.04 0 18 107 1145 109 110 103 111 104 ?1 29 108 918 0 111 112 104 .0205435
607626104 -.05 -.0494971831125282 18 111 915 113 114 107 115 108 ?1 29 112 914 0
 115 116 108 .0205435607626104 0 -.0494971831125282 18 115 911 117 118 111 119 1
12 ?1 29 116 910 0 119 120 112 .0434564392373896 -.05 -.0494971831125282 18 119
 907 121 122 115 123 116 ?1 29 120 906 0 123 124 116 .0434564392373896 0 -.04949
71831125282 18 123 903 125 126 119 127 120 ?1 29 124 850 0 127 128 120 .039 .001
5941722939444 -.05 18 127 847 129 130 123 131 124 ?1 29 128 846 0 131 132 124 .0
25 .0015941722939444 -.05 18 131 843 133 134 127 135 128 ?1 29 132 842 0 135 136
 128 .025 -.0515941722939444 -.05 18 135 839 137 138 131 139 132 ?1 29 136 838 0
 139 140 132 .039 -.0515941722939444 -.05 18 139 835 141 142 135 143 136 ?1 29 1
40 829 0 143 144 136 .005 -.05 -.03 18 143 826 145 146 139 147 140 ?1 29 144 820
 0 147 148 140 0 -.05 -.045 18 147 817 149 150 143 151 144 ?1 29 148 811 0 151 1
52 144 .005 0 -.03 18 151 808 153 154 147 155 148 ?1 29 152 807 0 155 156 148 0
 0 -.045 18 155 804 157 158 151 159 152 ?1 29 156 798 0 159 160 152 .059 -.05 -.
03 18 159 795 161 162 155 163 156 ?1 29 160 784 0 163 164 156 .02 -.05 -.065 18
 163 781 165 166 159 167 160 ?1 29 164 780 0 167 168 160 .044 -.05 -.065 18 167
 777 169 170 163 171 164 ?1 29 168 776 0 171 172 164 .02 0 -.065 18 171 773 173
 174 167 175 168 ?1 29 172 767 0 175 176 168 .059 0 -.03 18 175 764 177 178 171
 179 172 ?1 29 176 763 0 179 180 172 .044 0 -.065 18 179 760 181 182 175 183 176
 ?1 29 180 754 0 183 184 176 .064 -.05 -.045 18 183 751 185 186 179 187 180 ?1 2
9 184 750 0 187 188 180 .064 0 -.045 18 187 747 189 190 183 191 184 ?1 29 188 42
2 0 191 192 184 .0434564392373896 -.05 -.065 18 191 418 193 194 187 195 188 ?1 2
9 192 417 0 195 196 188 .0205435607626104 -.05 -.065 18 195 413 197 198 191 199
 192 ?1 29 196 684 0 199 200 192 .0434564392373896 0 -.065 18 199 610 201 202 19
5 203 196 ?1 29 200 685 0 203 204 196 .0205435607626104 0 -.065 18 203 606 205 2
06 199 207 200 ?1 29 204 1862 0 207 208 200 .039 -.02887298334620745 -.05 18 207
 1826 209 210 203 211 204 ?1 29 208 1864 0 211 212 204 .025 -.0211270166537926 -
.05 18 211 1827 32 38 207 213 208 ?1 29 212 1865 0 213 0 208 .039 -.021127016653
79255 -.05 18 213 1824 214 215 211 0 212 ?1 81 1 214 1883 31 213 0 0 216 209 217
 17 215 0 218 210 210 213 219 220 0 221 +15 255 218 1840 0 215 222 0 17 210 0 21
8 215 215 207 221 223 0 36 -17 219 0 224 225 226 207 215 220 0 227 -16 220 1804
 228 ?215 229 230 231 232 233 1 17 221 0 35 37 36 213 210 223 0 234 +15 35 1831
 0 37 235 236 17 37 0 35 29 221 211 234 230 0 237 +17 36 0 35 221 29 207 238 239
 0 219 +16 223 1815 240 ?221 239 0 241 239 230 1 17 234 0 242 130 243 213 37 230
 0 226 -15 242 1775 0 234 17 0 17 130 0 242 244 234 127 226 233 0 245 +17 243 0
 242 234 244 211 246 247 0 0 +16 230 1807 33 ?37 220 39 241 223 39 1 17 226 0 22
4 219 245 213 130 233 0 0 -15 224 993 0 248 249 0 17 245 0 224 226 250 127 251 2
52 0 253 -16 233 1765 254 ?130 232 247 231 220 232 1 81 1 254 1875 31 233 0 0 25
5 256 257 16 232 856 256 ?227 258 233 231 233 220 1 16 247 851 259 ?243 233 260
 261 262 260 1 30 255 231 858 0 232 261 263 0 +.039 0 -.05 0 1 0 30 261 853 0 24
7 264 231 0 -.025 -.05 -.05 0 1 0 30 263 863 0 258 231 265 0 -.059 -.05 -.03 0 1
 0 16 258 861 266 ?267 268 232 263 0 0 1 30 265 868 0 268 263 269 0 +.005 0 -.03
 0 1 0 16 268 866 270 ?271 252 258 265 0 0 1 38 12 CCCCCCCCCCCA17 intersection_d
ata204 0 Z269 919 0 252 265 272 0 +273 274 275 276 277 278 16 252 871 279 ?251 2
80 268 269 0 0 1 31 272 920 0 280 269 281 0 +.039 0 -.03 0 -1 0 0 0 -1 .02 51 27
3 1008 0 249 282 283 284 +.039 -.05 -.03 0 -1 0 .02 0 0 -1 51 274 667 0 285 286
 287 288 +.032 -.025 -.05 0 0 -1 .0275 -1 0 0 40 255 2 275 0 1 2 .00064708129471
0079 .266939869059106 ??.039 .0015941722939444 -.05 .0434564392373896 1894305599
57662e-32 -.0494971831125282 41 3 CI8 term_use0 0 1 cCZ1 276 L?.039 .00159417229
39444 -.05 41 1 277 L?.0434564392373896 189430559957662e-32 -.0494971831125282 2
04 2 17 INTERSECTION_DATA17 Intersection data7 uv_type0 0 1 u6 values0 1 1 fT8 2
78 4 0 -.0515941722939444 1.828173973116605 0 .2247082555491375 -.05 2.000495992
94632 -.000502816887471808 14 255 285 653 289 ?290 291 292 6 274 +291 291 290 29
1 24 51 286 1631 0 293 294 274 0 +-.04252760417883985 -.025 -.021 1 0 0 .005 0 0
 -1 50 255 287 3 0 295 274 296 0 +.032 -.05 -.0325 0 -1 0 1 0 0 141 255 288 269
 297 298 274 141 297 299 300 288 274 141 298 301 288 300 274 38 301 922 0 302 28
1 303 0 +273 274 304 305 306 307 141 300 308 298 297 274 38 308 924 0 309 303 29
9 0 +283 274 310 311 312 313 16 309 891 314 ?134 315 316 308 0 0 1 31 303 923 0
 316 301 308 0 +.025 0 -.03 0 -1 0 0 0 -1 .02 38 299 925 0 315 308 317 0 +283 27
4 318 319 320 321 51 283 1035 0 322 273 323 324 +.025 -.05 -.03 0 -1 0 .02 0 0 -
1 40 2 310 0 1 2 .000647081294710079 .266939869059106 ??.0205435607626104 0 -.04
94971831125282 .025 .0015941722939444 -.05 41 1 311 L?.0205435607626104 0 -.0494
971831125282 41 1 312 L?.025 .0015941722939444 -.05 204 8 313 4 6.05847705163045
 -.05 1.141096660643472 -.000502816887471808 0 -.0515941722939444 1.313418680473
19 0 14 322 1019 325 ?326 249 327 6 283 -0 0 326 249 24 51 323 1316 0 326 283 32
8 0 +.0025 -.01 -.01 -1 0 0 .01 0 0 1 141 324 308 329 329 283 141 329 299 324 32
4 283 14 326 1304 330 ?331 322 332 6 323 +0 0 331 322 24 51 328 1337 0 331 323 2
0 0 +.0615 -.01 -.01 -1 0 0 .01 0 0 1 14 331 1325 333 ?334 326 335 6 328 +0 0 33
4 326 24 51 20 1358 0 334 328 7 0 +.032 -.04 -.01 1 0 0 .01 0 0 -1 14 334 1346 3
36 ?19 331 337 6 20 +0 0 19 331 24 81 1 336 1915 338 334 339 0 333 340 341 14 19
 1367 340 ?293 334 342 6 7 +0 0 293 334 24 15 337 1347 0 50 334 0 13 24 89 0 0 0
 0 0 0 10 17 14 17 1776 343 ?344 0 242 6 345 -344 344 344 0 24 81 1 343 1894 338
 17 346 0 0 347 348 14 344 224 347 ?349 17 350 6 345 -17 17 349 17 24 50 345 238
 0 17 351 352 0 +.032 -.05 -.05 1284980352575412e-31 0 -1 -1 0 -1284980352575412
e-31 50 351 237 0 353 296 345 0 +.005 -.05 -.025 -1 0 0 0 0 1 50 352 239 0 354 3
45 355 0 +.059 -.05 -.025 1 0 1387778780781446e-31 1387778780781446e-31 0 -1 14
 354 226 356 ?353 357 358 6 352 -0 0 353 357 24 50 355 240 0 357 352 359 0 +.061
5 -.05 0 0 0 -1 -1 0 0 14 357 228 360 ?354 361 362 6 355 -0 0 354 361 24 50 359
 241 0 361 355 363 0 +.064 -.05 -.0325 -1 0 0 0 0 1 14 361 230 364 ?357 365 366
 6 359 -0 0 357 365 24 50 363 242 0 365 359 367 0 +.032 -.05 -.065 0 0 1 1 0 0 1
4 365 232 368 ?361 369 370 6 363 -0 0 361 369 24 50 367 243 0 369 363 371 0 +0 -
.05 -.0325 1 0 0 0 0 -1 14 369 234 372 ?365 373 374 6 367 -0 0 365 373 24 50 371
 244 0 373 367 375 0 +.0025 -.05 0 0 0 -1 -1 0 0 14 373 236 376 ?369 377 378 6 3
71 -0 0 369 377 24 51 375 962 0 290 371 282 0 +.044 -.05 -.045 0 1 0 .02 0 0 1 1
4 290 950 379 ?380 285 381 6 375 +0 0 380 285 24 51 282 983 0 380 375 273 0 +.02
 -.05 -.045 0 1 0 .02 0 0 1 14 380 971 382 ?249 290 383 6 282 +0 0 249 290 24 81
 1 382 1910 338 380 384 0 379 385 386 14 249 992 385 ?322 380 224 6 273 -0 0 322
 380 24 15 383 972 0 387 380 0 17 387 0 383 388 389 147 166 390 0 0 -17 388 0 38
3 174 387 155 391 392 0 0 -17 389 0 383 387 174 163 393 394 0 0 -17 166 0 395 19
8 150 163 387 390 0 396 +16 390 830 397 ?166 262 392 264 0 0 1 81 1 397 1090 31
 390 0 0 398 399 400 16 262 1755 401 ?138 260 390 261 260 247 1 16 392 821 402 ?
391 390 403 404 0 0 1 31 264 832 0 390 404 261 0 +.02 -.05 -.045 0 -1 0 0 0 -1 .
02 30 404 823 0 392 405 264 0 -0 -.05 -.045 0 1 0 31 405 814 0 403 406 404 0 -.0
2 0 -.045 0 -1 0 0 0 -1 .02 16 403 812 398 ?407 392 408 405 0 0 1 31 406 801 0 4
08 409 405 0 +.044 -.05 -.045 0 -1 0 0 0 -1 .02 16 408 799 410 ?186 403 411 406
 0 0 1 30 409 792 0 411 412 406 0 -.044 -.05 -.065 0 1 0 16 411 790 413 ?170 408
 394 409 0 0 1 30 412 787 0 394 414 409 0 +.02 -.05 -.065 0 1 0 16 394 785 415 ?
393 411 416 412 0 0 1 31 414 770 0 416 417 412 0 -.044 0 -.045 0 -1 0 0 0 -1 .02
 16 416 768 418 ?182 394 419 414 0 0 1 30 417 757 0 419 420 414 0 +.064 -.05 -.0
45 0 1 0 16 419 755 399 ?421 416 422 417 0 0 1 30 420 409 0 422 423 417 0 +.0205
435607626104 0 -.05 0 0 -1 16 422 407 424 ?425 419 426 420 0 0 1 30 423 403 0 42
6 427 420 0 -.0434564392373896 0 -.05 0 0 -1 16 426 401 428 ?126 422 429 423 0 0
 1 30 427 252 0 429 430 423 0 +0 -.05 0 0 1 0 16 429 1146 431 ?432 426 433 427 0
 0 1 30 430 249 0 433 434 427 0 +.064 -.05 0 0 1 0 16 433 1221 435 ?436 429 437
 430 0 0 1 30 434 248 0 437 438 430 0 +.059 -.05 693889390390723e-32 0 1 0 16 43
7 1213 439 ?440 433 441 434 0 0 1 30 438 245 0 441 442 434 0 +.005 -.05 0 0 1 0
 16 441 1154 443 ?444 437 445 438 0 0 1 30 442 197 0 446 447 438 0 +.005 0 -.025
 0 0 1 16 446 809 448 ?449 450 451 442 0 0 1 30 447 199 0 451 452 442 0 +.059 0
 -.025 1387778780781446e-31 0 -1 16 451 1239 453 ?178 446 454 447 0 0 1 30 452 2
01 0 454 455 447 0 +.064 0 -.0325 0 0 1 16 454 748 456 ?457 451 458 452 0 0 1 30
 455 202 0 458 459 452 0 +.032 0 -.065 1 0 0 16 458 774 460 ?206 454 461 455 461
 461 1 30 459 203 0 462 463 455 0 +0 0 -.0325 0 0 -1 16 462 1172 464 ?158 461 46
5 459 0 0 1 30 463 44 0 445 466 459 0 +.005 -.05 -.025 0 0 1 16 445 827 467 ?468
 441 469 463 0 0 1 30 466 34 0 469 470 463 0 +.059 -.05 -.025 1387778780781446e-
31 0 -1 16 469 1243 471 ?162 445 472 466 0 0 1 30 470 24 0 472 473 466 0 +.064 -
.05 -.0325 0 0 1 16 472 752 474 ?52 469 475 470 0 0 1 30 473 19 0 475 476 470 0
 +.032 -.05 -.065 1 0 0 16 475 782 477 ?198 472 478 473 478 478 1 30 476 14 0 45
0 479 473 0 +0 -.05 -.0325 0 0 -1 16 450 1176 480 ?150 478 446 476 0 0 1 30 479
 670 0 465 481 476 0 +.0205435607626104 -.05 -.05 0 0 -1 16 465 593 482 ?483 462
 484 479 0 0 1 30 481 671 0 484 485 479 0 -.0434564392373896 -.05 -.05 0 0 -1 16
 484 596 486 ?122 465 487 481 0 0 1 31 485 672 0 488 489 481 0 +.032 -.025 -.065
 0 0 -1 -1 0 0 .0275 16 488 574 490 ?491 492 493 485 493 493 1 31 489 673 0 487
 494 485 0 +.032 -.025 -.05 0 0 -1 -1 0 0 .0275 16 487 844 495 ?253 484 492 489
 492 492 1 31 494 1634 0 496 497 489 0 +0 -.025 -.021 1 0 0 0 0 -1 .005 16 496 1
587 498 ?499 493 500 494 0 0 1 31 497 1635 0 500 501 494 0 +.059 -.025 -.021 1 0
 1387778780781446e-31 1387778780781446e-31 0 -1 .005 16 500 1590 502 ?503 496 21
 497 0 0 1 31 501 1636 0 504 505 497 0 +.064 -.025 -.021 1 0 0 0 0 -1 .005 16 50
4 1596 506 ?507 21 229 501 0 0 1 31 505 1859 0 229 241 501 0 +.032 -.025 -.065 0
 0 1 1 0 0 .008 16 229 1796 508 ?509 504 220 505 0 0 1 31 241 1860 0 230 0 505 0
 +.032 -.025 -.05 -1284980352575412e-31 0 1 1 0 1284980352575412e-31 .008 81 1 5
08 1872 31 229 0 0 510 511 512 17 509 0 370 509 509 0 513 229 0 0 +15 370 1780 0
 509 365 514 17 513 0 236 513 513 0 509 229 0 0 -15 236 1832 0 513 235 0 14 235
 1841 515 ?222 516 35 6 294 -0 0 222 516 24 81 1 515 1919 338 235 511 0 517 518
 519 14 222 1837 518 ?520 235 218 6 521 -520 520 520 235 24 14 516 1616 517 ?235
 293 522 6 286 -293 293 235 293 24 51 294 1856 0 235 521 286 0 +.032 -.025 -.156
52760417884 -1284980352575412e-31 0 1 .008 1 0 1284980352575412e-31 50 521 1857
 0 520 0 294 0 +.032 -.025 -.05 -1284980352575412e-31 0 1 1 0 1284980352575412e-
31 14 520 1850 523 ?0 222 524 6 521 -222 222 0 222 24 81 1 523 1921 338 520 216
 0 518 0 525 15 524 1853 0 40 520 0 17 40 0 524 38 38 12 237 260 0 238 +17 38 0
 524 40 40 211 29 39 0 37 -17 237 0 327 246 526 211 40 260 0 243 -16 260 1750 51
0 ?40 247 262 261 247 262 1 17 238 0 350 138 227 12 36 239 0 526 -15 350 1770 0
 238 344 0 17 138 0 350 527 238 135 526 262 0 528 +17 227 0 350 238 527 207 225
 232 0 0 +16 239 1799 529 ?36 39 223 241 39 223 1 17 526 0 327 237 530 12 138 26
2 0 0 -15 327 1020 0 530 322 0 17 530 0 327 526 531 135 532 315 0 0 -17 531 0 32
7 530 533 111 146 534 0 0 -17 532 0 292 483 528 111 530 315 0 531 +16 315 895 53
5 ?532 534 309 299 0 0 1 81 1 535 1106 31 315 0 0 314 460 536 16 534 899 537 ?14
6 538 315 317 0 0 1 81 1 537 1104 31 534 0 0 539 314 540 17 146 0 395 468 114 14
3 531 534 0 541 +16 538 1161 542 ?102 543 534 544 0 0 1 31 317 926 0 534 299 544
 0 -.025 -.05 -.03 0 -1 0 0 0 -1 .02 30 544 1163 0 538 317 545 0 -.005 -.04 0 -1
 0 0 30 545 1168 0 543 544 546 0 +.0025 -.01 0 -1 0 0 16 543 1166 547 ?548 549 5
38 545 0 0 1 31 546 1181 0 549 545 550 0 -0 -.04 -.01 1 0 0 0 0 -1 .01 16 549 11
79 551 ?110 552 543 546 0 0 1 31 550 1186 0 552 546 553 0 -0 -.01 -.01 1 0 0 0 0
 -1 .01 16 552 1184 554 ?94 555 549 550 0 0 1 30 553 1195 0 555 550 556 0 -.032
 0 -.01 -1 0 0 16 555 1193 557 ?86 558 552 553 0 0 1 31 556 1204 0 558 553 559 0
 -.005 -.04 -.01 -1 0 0 0 0 1 .01 16 558 1202 560 ?82 561 555 556 0 0 1 31 559 1
209 0 561 556 562 0 -.005 -.01 -.01 -1 0 0 0 0 1 .01 16 561 1207 563 ?98 564 558
 559 0 0 1 30 562 1230 0 564 559 565 0 -.064 -.04 0 -1 0 0 16 564 1228 566 ?71 5
67 561 562 0 0 1 30 565 1235 0 567 562 568 0 +.0615 -.01 0 -1 0 0 16 567 1233 56
9 ?570 571 564 565 0 0 1 31 568 1248 0 571 565 572 0 -.059 -.04 -.01 1 0 1387778
780781446e-31 1387778780781446e-31 0 -1 .01 16 571 1246 573 ?78 574 567 568 0 0
 1 31 572 1253 0 574 568 575 0 -.059 -.01 -.01 1 0 1387778780781446e-31 13877787
80781446e-31 0 -1 .01 16 574 1251 576 ?63 577 571 572 0 0 1 30 575 1262 0 577 57
2 578 0 -.032 0 -.01 -1 0 0 16 577 1260 579 ?54 51 574 575 0 0 1 31 578 1271 0 5
1 575 580 0 -.064 -.04 -.01 -1 0 0 0 0 1 .01 16 51 1269 581 ?42 582 577 578 0 0
 1 31 580 1276 0 582 578 583 0 -.064 -.01 -.01 -1 0 0 0 0 1 .01 16 582 1274 584
 ?67 27 51 580 0 0 1 30 583 1281 0 27 580 22 0 +.059 -.05 -.01 -1 0 0 16 27 1279
 585 ?586 11 582 583 0 0 1 30 22 1286 0 11 583 8 0 +0 -.05 -.01 -1 0 0 81 1 585
 1428 31 27 0 0 573 547 587 17 586 0 588 162 52 55 589 27 0 590 +15 588 434 0 52
 295 0 17 162 0 588 591 586 159 590 469 0 267 +17 52 0 588 586 186 30 48 472 0 5
89 +17 589 0 337 50 59 30 586 27 0 0 -17 590 0 592 78 267 55 162 469 0 0 -15 592
 225 0 440 354 0 17 78 0 592 440 590 76 59 571 0 593 +17 267 0 592 590 178 159 5
94 258 0 248 +17 178 0 592 267 63 175 595 451 0 596 +17 594 0 224 250 248 175 26
7 258 0 0 -17 248 0 224 594 597 159 591 598 0 0 -17 597 0 224 248 225 119 142 30
2 0 0 -17 591 0 588 194 162 119 248 598 0 597 +16 598 879 599 ?591 302 280 281 0
 0 1 81 1 599 1099 31 598 0 0 600 279 601 16 302 883 602 ?142 316 598 301 0 0 1
 16 280 875 600 ?596 598 252 272 0 0 1 31 281 921 0 598 272 301 0 -.039 -.05 -.0
3 0 -1 0 0 0 -1 .02 81 1 600 1098 31 280 0 0 270 599 603 17 596 0 604 595 126 17
5 250 280 0 594 +15 604 131 0 595 605 0 17 595 0 604 54 596 60 178 451 0 606 -17
 126 0 604 596 607 123 202 426 0 251 +17 250 0 224 245 594 123 596 280 0 0 -17 6
07 0 604 126 182 199 608 461 0 0 -17 202 0 609 610 251 199 126 426 0 491 -17 251
 0 609 202 253 123 245 252 0 250 +15 609 628 0 118 291 0 17 253 0 609 251 134 12
7 244 487 0 0 +17 134 0 609 253 118 131 611 309 0 244 +17 244 0 242 243 130 131
 253 487 0 246 -17 246 0 327 611 237 131 243 247 0 0 -17 611 0 327 154 246 115 1
34 309 0 0 -17 154 0 327 533 611 151 612 316 0 271 -17 533 0 327 531 154 143 271
 268 0 0 -17 612 0 613 425 614 115 154 316 0 611 +16 316 887 539 ?612 309 302 30
3 0 0 1 17 271 0 615 449 541 151 533 268 0 614 +15 615 221 0 449 353 0 17 449 0
 615 98 271 83 614 446 0 616 +17 541 0 615 271 82 143 468 445 0 533 -17 614 0 61
3 612 86 151 449 446 0 0 -15 613 402 0 617 377 0 17 86 0 613 614 617 83 618 555
 0 449 +17 617 0 613 86 407 91 158 462 0 618 -17 618 0 332 106 616 91 86 555 0 0
 -15 332 1305 0 616 326 0 17 106 0 332 619 618 103 94 552 0 548 -17 616 0 332 61
8 619 83 98 561 0 0 -17 619 0 332 616 106 95 548 543 0 0 -17 98 0 615 620 449 95
 616 561 0 444 +17 620 0 615 82 98 99 444 441 0 621 -17 444 0 378 548 102 95 620
 441 0 619 +15 378 235 0 444 373 0 17 548 0 378 622 444 103 619 543 0 432 +17 10
2 0 378 444 622 99 623 538 0 620 +17 622 0 378 102 548 107 432 429 0 623 -17 623
 0 342 90 621 107 102 538 0 0 -15 342 1368 0 621 19 0 17 90 0 342 624 623 87 110
 549 0 26 -17 621 0 342 623 624 99 82 558 0 0 -17 624 0 342 621 90 79 26 11 0 0
 -17 82 0 615 541 620 79 621 558 0 468 +17 468 0 395 26 146 79 541 445 0 624 +15
 395 439 0 468 349 0 17 26 0 395 150 468 87 624 11 0 625 +17 150 0 395 166 26 14
7 625 450 0 391 +17 625 0 626 110 391 87 150 450 0 0 -15 626 233 0 432 369 0 17
 110 0 626 432 625 107 90 549 0 622 +17 391 0 626 625 158 147 388 392 0 387 +17
 158 0 626 391 94 155 617 462 0 407 +17 94 0 626 158 432 91 106 552 0 617 +17 40
7 0 613 617 627 155 174 403 0 388 +17 627 0 613 407 425 171 206 458 0 0 -17 174
 0 383 389 388 171 407 403 0 393 -17 393 0 514 206 396 171 389 394 0 627 +15 514
 231 0 608 365 0 17 206 0 514 491 393 203 627 458 0 610 +17 396 0 514 393 628 16
3 198 475 0 389 -17 628 0 514 396 629 195 630 493 0 0 +17 198 0 395 114 166 195
 396 475 0 483 +17 114 0 395 146 198 111 483 465 0 532 -17 483 0 292 630 532 195
 114 465 0 628 +15 292 656 0 122 285 0 17 630 0 292 122 483 191 628 493 0 0 -17
 122 0 292 142 630 119 194 484 0 591 +16 493 599 631 ?628 488 496 485 488 488 1
 81 1 631 740 31 493 0 0 490 157 632 80 7 CCCCCDI12 legal_owners0 17 1 lCZ1 31 6
33 634 9000 0 0 0 0 3 6 0 0 0 FFTFTFTTFFFFFFFFF1 81 1 490 739 31 488 0 0 193 631
 635 81 1 157 1067 31 155 0 0 631 149 636 82 255 3 632 10 15 1 81 1 149 1068 31
 147 0 0 157 173 637 82 3 636 11 0 0 81 1 173 1069 31 171 0 0 149 165 638 82 3 6
37 11 1 0 81 1 165 1070 31 163 0 0 173 189 639 82 3 638 11 2 0 81 1 189 1071 31
 187 0 0 165 185 640 82 3 639 11 3 0 81 1 185 1072 31 183 0 0 189 181 641 82 3 6
40 11 4 0 81 1 181 1073 31 179 0 0 185 169 642 82 3 641 11 5 0 81 1 169 1074 31
 167 0 0 181 177 643 82 3 642 11 6 0 81 1 177 1075 31 175 0 0 169 161 644 82 3 6
43 11 7 0 81 1 161 1076 31 159 0 0 177 153 645 82 3 644 11 8 0 81 1 153 1077 31
 151 0 0 161 145 646 82 3 645 11 9 0 81 1 145 1078 31 143 0 0 153 129 647 82 3 6
46 11 10 0 81 1 129 1079 31 127 0 0 145 141 648 82 3 647 11 11 0 81 1 141 1080 3
1 139 0 0 129 125 649 82 3 648 11 12 0 81 1 125 1081 31 123 0 0 141 121 650 82 3
 649 11 13 0 81 1 121 1082 31 119 0 0 125 133 651 82 3 650 11 14 0 81 1 133 1083
 31 131 0 0 121 137 652 82 3 651 11 15 0 81 1 137 1084 31 135 0 0 133 117 653 82
 3 652 11 16 0 81 1 117 1085 31 115 0 0 137 113 654 82 3 653 11 17 0 81 1 113 10
86 31 111 0 0 117 402 655 82 3 654 11 18 0 81 1 402 1087 31 392 0 0 113 415 656
 82 3 655 11 19 0 81 1 415 1088 31 394 0 0 402 398 657 82 3 656 11 0 1 81 1 398
 1089 31 403 0 0 415 397 658 82 3 657 11 1 1 82 3 658 11 2 1 81 1 193 730 31 191
 0 0 197 490 659 82 3 635 10 14 1 81 1 197 729 31 195 0 0 201 193 660 82 3 659 1
0 5 0 81 1 201 726 31 199 0 0 205 197 661 82 3 660 10 4 0 81 1 205 725 31 203 0
 0 662 201 663 82 3 661 10 1 0 81 1 662 708 31 1 0 664 0 205 665 82 3 663 10 0 0
 81 1 664 1891 666 1 662 14 0 0 667 82 3 665 6 0 3 80 1 666 668 669 8038 0 0 0 0
 0 0 0 0 0 TTTTTTTTTTTTTFTFT10 81 1 14 1892 668 1 664 2 0 0 670 98 255 6 667 80
 97 114 116 32 49 80 1 668 671 672 8017 0 0 0 0 0 0 0 0 0 TTTTTTTTTTTTTFTFT3 84
 255 6 670 Part 179 255 13 672 SDL/TYSA_NAME79 14 669 SDL/TYSA_UNAME79 9 634 BTI
/DetId17 142 0 292 528 122 139 597 302 0 527 +17 194 0 588 673 591 191 122 484 0
 629 -17 673 0 588 186 194 167 629 478 0 674 +17 629 0 514 628 170 191 673 478 0
 630 -17 170 0 514 629 608 167 675 411 0 673 +16 478 419 676 ?673 475 450 473 47
5 475 1 81 1 676 1118 31 478 0 0 477 424 677 81 1 477 1117 31 475 0 0 678 676 67
9 81 1 424 1119 31 422 0 0 676 428 680 82 3 677 11 31 1 81 1 428 1120 31 426 0 0
 424 482 681 82 3 680 11 32 1 81 1 482 1121 31 465 0 0 428 486 682 82 3 681 11 3
3 1 81 1 486 1122 31 484 0 0 482 495 683 82 3 682 11 34 1 81 1 495 1123 31 487 0
 0 486 684 685 82 3 683 11 35 1 81 1 684 1124 31 492 0 0 495 384 686 82 3 685 11
 36 1 16 492 836 684 ?528 487 488 489 487 487 1 81 1 384 1125 31 380 0 382 684 6
87 688 82 3 686 11 37 1 81 1 687 1126 31 290 0 379 384 689 690 82 3 688 11 0 2 8
1 1 379 1909 338 290 687 0 289 382 691 81 1 689 1127 31 249 0 385 687 692 693 82
 3 690 11 1 2 81 1 385 1911 338 249 689 0 382 325 694 81 1 692 1128 31 322 0 325
 689 695 696 82 3 693 11 2 2 81 1 325 1912 338 322 692 0 385 330 697 81 1 695 11
39 31 291 0 698 692 699 700 82 3 696 11 3 2 14 291 625 698 ?285 605 609 6 274 +2
85 285 285 605 24 81 1 698 1907 338 291 695 0 701 289 702 81 1 699 1140 31 285 0
 289 695 66 703 82 3 700 11 14 2 81 1 289 1908 338 285 699 0 698 379 704 81 1 66
 1405 31 64 0 0 699 74 705 82 3 703 11 15 2 81 1 74 1406 31 72 0 0 66 53 706 82
 3 705 12 0 0 81 1 53 1407 31 43 0 0 74 62 707 82 3 706 12 1 0 81 1 62 1408 31 6
0 0 0 53 70 708 82 3 707 12 2 0 81 1 70 1409 31 68 0 0 62 44 709 82 3 708 12 3 0
 81 1 44 1410 31 76 0 0 70 41 710 82 3 709 12 4 0 82 3 710 12 5 0 80 1 338 0 711
 8001 0 0 0 0 3 5 0 0 0 FFFFTFTFFFFFFFFFF2 83 255 3 704 .615686274509804 .811764
705882353 .929411764705882 79 15 711 SDL/TYSA_COLOUR81 1 701 1906 338 605 712 0
 713 698 714 83 3 702 .615686274509804 .811764705882353 .929411764705882 14 605
 120 701 ?291 295 604 6 296 -377 377 291 295 24 81 1 712 1460 31 605 0 701 715 7
16 717 81 1 713 1905 338 295 718 0 719 701 720 83 3 714 .615686274509804 .811764
705882353 .929411764705882 14 295 1 713 ?605 353 588 6 287 +349 349 605 353 24 8
1 1 718 1462 31 295 0 713 716 498 721 81 1 719 1904 338 353 722 0 356 713 723 83
 3 720 .615686274509804 .811764705882353 .929411764705882 14 353 222 719 ?295 35
4 724 6 351 -0 0 295 354 24 81 1 722 1652 31 353 0 719 725 726 727 81 1 356 1903
 338 354 725 0 360 719 728 83 3 723 .615686274509804 .811764705882353 .929411764
705882 81 1 725 1651 31 354 0 356 729 722 730 81 1 360 1902 338 357 731 0 364 35
6 732 83 3 728 .615686274509804 .811764705882353 .929411764705882 81 1 731 1453
 31 357 0 360 733 734 735 81 1 364 1901 338 361 729 0 368 360 736 83 3 732 .6156
86274509804 .811764705882353 .929411764705882 81 1 729 1650 31 361 0 364 737 725
 738 81 1 368 1900 338 365 255 0 372 364 739 83 3 736 .615686274509804 .81176470
5882353 .929411764705882 81 1 255 1874 31 365 0 368 511 254 740 81 1 372 1899 33
8 369 737 0 376 368 741 83 3 739 .615686274509804 .811764705882353 .929411764705
882 81 1 737 1649 31 369 0 372 742 729 743 81 1 376 1898 338 373 734 0 744 372 7
45 83 3 741 .615686274509804 .811764705882353 .929411764705882 81 1 734 1454 31
 373 0 376 731 715 746 81 1 744 1897 338 377 715 0 747 376 748 83 3 745 .6156862
74509804 .811764705882353 .929411764705882 14 377 404 744 ?373 349 613 6 296 -60
5 605 373 349 24 81 1 715 1459 31 377 0 744 734 712 749 81 1 747 1896 338 349 71
6 0 347 744 750 83 3 748 .615686274509804 .811764705882353 .929411764705882 14 3
49 435 747 ?377 344 395 6 287 +295 295 377 344 24 81 1 716 1461 31 349 0 747 712
 718 751 81 1 347 1895 338 344 752 0 343 747 753 83 3 750 .615686274509804 .8117
64705882353 .929411764705882 81 1 752 1880 31 344 0 347 346 754 755 83 3 753 .61
5686274509804 .811764705882353 .929411764705882 81 1 346 1879 31 17 0 343 401 75
2 756 81 1 754 1881 31 222 0 518 752 216 757 82 3 755 21 3 2 81 1 518 1920 338 2
22 754 0 515 523 758 81 1 216 1882 31 520 0 523 754 214 759 82 3 757 21 4 2 82 3
 759 21 5 2 83 3 758 .615686274509804 .811764705882353 .929411764705882 81 1 401
 1878 31 262 0 0 259 346 760 82 3 756 21 2 2 81 1 259 1877 31 247 0 0 256 401 76
1 82 3 760 21 6 1 81 1 256 1876 31 232 0 0 254 259 762 82 3 761 21 5 1 82 3 762
 21 4 1 82 3 751 12 12 2 82 3 749 12 10 2 50 296 196 0 605 287 351 0 +.032 0 -.0
325 0 -1 0 1 0 0 82 3 746 12 5 2 81 1 742 1648 31 21 0 0 502 737 763 82 3 743 17
 0 2 16 21 1584 742 ?764 500 504 8 0 0 1 81 1 502 1647 31 500 0 0 506 742 765 82
 3 763 17 3 1 81 1 506 1646 31 504 0 0 498 502 766 82 3 765 17 2 1 81 1 498 1645
 31 496 0 0 718 506 767 82 3 766 17 1 1 82 3 767 17 0 1 17 764 0 724 764 764 0 7
68 21 0 0 +15 724 1550 0 764 353 615 17 768 0 769 768 768 0 764 21 0 0 -15 769 1
604 0 768 293 770 14 293 1601 771 ?516 19 769 6 286 -516 516 516 19 24 15 770 16
05 0 772 293 0 17 772 0 770 772 772 0 499 496 0 0 -17 499 0 374 499 499 0 772 49
6 0 0 +15 374 1570 0 499 369 626 81 1 771 1917 338 293 726 0 340 517 773 81 1 72
6 1653 31 293 0 771 722 774 775 81 1 340 1916 338 19 733 0 336 771 776 81 1 517
 1918 338 516 774 0 771 515 777 83 3 773 .615686274509804 .811764705882353 .9294
11764705882 81 1 774 1654 31 516 0 517 726 228 778 83 3 777 .615686274509804 .81
1764705882353 .929411764705882 81 1 228 1870 31 220 0 0 774 510 779 82 3 778 17
 5 2 81 1 510 1871 31 260 0 0 228 508 780 82 3 779 21 0 1 82 3 780 21 1 1 81 1 7
33 1452 31 19 0 340 781 731 782 83 3 776 .615686274509804 .811764705882353 .9294
11764705882 81 1 781 1451 31 326 0 330 339 733 783 82 3 782 12 3 2 81 1 330 1913
 338 326 781 0 325 333 784 81 1 339 1450 31 334 0 336 785 781 786 82 3 783 12 2
 2 81 1 785 1449 31 331 0 333 467 339 787 82 3 786 12 1 2 81 1 333 1914 338 331
 785 0 330 336 788 81 1 467 1448 31 445 0 0 448 785 789 82 3 787 12 0 2 81 1 448
 1447 31 446 0 0 471 467 790 82 3 789 12 27 1 81 1 471 1446 31 469 0 0 453 448 7
91 82 3 790 12 26 1 81 1 453 1445 31 451 0 0 474 471 792 82 3 791 12 25 1 81 1 4
74 1444 31 472 0 0 456 453 793 82 3 792 12 24 1 81 1 456 1443 31 454 0 0 480 474
 794 82 3 793 12 23 1 81 1 480 1442 31 450 0 0 464 456 795 82 3 794 12 22 1 81 1
 464 1441 31 462 0 0 443 480 796 82 3 795 12 21 1 81 1 443 1440 31 441 0 0 439 4
64 797 82 3 796 12 20 1 81 1 439 1439 31 437 0 0 435 443 798 82 3 797 12 19 1 81
 1 435 1438 31 433 0 0 431 439 799 82 3 798 12 18 1 81 1 431 1437 31 429 0 0 25
 435 800 82 3 799 12 17 1 81 1 25 1436 31 11 0 0 560 431 801 82 3 800 12 16 1 81
 1 560 1435 31 558 0 0 551 25 802 82 3 801 12 15 1 81 1 551 1434 31 549 0 0 542
 560 803 82 3 802 12 14 1 81 1 542 1433 31 538 0 0 557 551 804 82 3 803 12 13 1
 81 1 557 1432 31 555 0 0 563 542 805 82 3 804 12 12 1 81 1 563 1431 31 561 0 0
 554 557 806 82 3 805 12 11 1 81 1 554 1430 31 552 0 0 547 563 807 82 3 806 12 1
0 1 81 1 547 1429 31 543 0 0 585 554 808 82 3 807 12 9 1 82 3 808 12 8 1 83 3 78
8 .615686274509804 .811764705882353 .929411764705882 83 3 784 .615686274509804 .
811764705882353 .929411764705882 82 3 775 17 4 2 81 1 511 1873 31 235 0 515 508
 255 809 82 3 740 21 1 2 82 3 809 21 0 2 82 3 738 17 1 2 82 3 735 12 4 2 82 3 73
0 17 2 2 82 3 727 17 3 2 82 3 721 12 13 2 82 3 717 12 11 2 83 3 697 .61568627450
9804 .811764705882353 .929411764705882 83 3 694 .615686274509804 .81176470588235
3 .929411764705882 83 3 691 .615686274509804 .811764705882353 .929411764705882 1
7 528 0 292 532 142 135 527 492 0 530 +17 527 0 350 227 138 139 528 492 0 225 -1
7 225 0 224 597 219 139 227 232 0 0 -81 1 678 1116 31 461 0 0 460 477 810 82 3 6
79 11 30 1 16 461 397 678 ?608 458 462 455 458 458 1 81 1 460 1115 31 458 0 0 53
5 678 811 82 3 810 11 29 1 82 3 811 11 28 1 17 608 0 514 170 491 179 607 461 0 6
75 +17 491 0 514 608 206 199 610 488 0 607 +17 675 0 381 190 674 179 170 411 0 0
 -15 381 951 0 674 290 0 17 190 0 381 812 675 187 182 416 0 421 -17 674 0 381 67
5 812 167 186 408 0 0 -17 812 0 381 674 190 183 421 419 0 0 -17 186 0 588 52 673
 183 674 408 0 48 +17 48 0 47 421 42 183 52 472 0 812 -15 47 229 0 457 361 0 17
 421 0 47 457 48 187 812 419 0 813 +17 457 0 47 67 421 43 813 454 0 814 +17 813
 0 604 182 54 187 457 454 0 0 -17 182 0 604 607 813 179 190 416 0 608 +17 54 0 6
04 813 595 43 606 577 0 457 +17 606 0 335 75 814 60 54 577 0 0 -15 335 1326 0 81
4 331 0 17 75 0 335 815 606 72 63 574 0 570 -17 814 0 335 606 815 43 67 582 0 0
 -17 815 0 335 814 75 64 570 567 0 0 -17 67 0 47 49 457 64 814 582 0 436 +17 49
 0 47 42 67 68 436 433 0 50 -17 436 0 362 570 71 64 49 433 0 815 +15 362 227 0 4
36 357 0 17 570 0 362 593 436 72 815 567 0 440 +17 71 0 362 436 593 68 816 564 0
 49 +17 593 0 362 71 570 76 440 437 0 816 -17 816 0 337 59 50 76 71 564 0 0 -17
 59 0 337 589 816 55 78 571 0 586 -17 50 0 337 816 589 68 42 51 0 0 -17 440 0 59
2 63 78 72 593 437 0 0 +17 63 0 592 178 440 60 75 574 0 595 +17 610 0 609 118 20
2 203 491 488 0 425 -17 118 0 609 134 610 115 425 422 0 612 -17 425 0 613 627 61
2 203 118 422 0 0 +17 432 0 626 94 110 103 622 429 0 0 +81 1 539 1103 31 316 0 0
 602 537 817 81 1 602 1101 31 302 0 0 279 539 818 82 3 817 11 16 1 81 1 279 1100
 31 252 0 0 599 602 819 82 3 818 11 14 1 82 3 819 11 13 1 81 1 270 1096 31 268 0
 0 266 600 820 82 3 603 11 11 1 81 1 266 1095 31 258 0 0 410 270 821 82 3 820 11
 9 1 81 1 410 1094 31 408 0 0 418 266 822 82 3 821 11 8 1 81 1 418 1093 31 416 0
 0 413 410 823 82 3 822 11 7 1 81 1 413 1092 31 411 0 0 399 418 824 82 3 823 11
 6 1 81 1 399 1091 31 419 0 0 397 413 825 82 3 824 11 5 1 82 3 825 11 4 1 82 3 6
01 11 12 1 81 1 573 1427 31 571 0 0 581 585 826 82 3 587 12 7 1 81 1 581 1426 31
 51 0 0 566 573 827 82 3 826 12 6 1 81 1 566 1425 31 564 0 0 579 581 828 82 3 82
7 12 5 1 81 1 579 1424 31 577 0 0 576 566 829 82 3 828 12 4 1 81 1 576 1423 31 5
74 0 0 584 579 830 82 3 829 12 3 1 81 1 584 1422 31 582 0 0 569 576 831 82 3 830
 12 2 1 81 1 569 1421 31 567 0 0 81 584 832 82 3 831 12 1 1 81 1 81 1420 31 79 0
 0 89 569 833 82 3 832 12 0 1 81 1 89 1419 31 87 0 0 101 81 834 82 3 833 12 15 0
 81 1 101 1418 31 99 0 0 109 89 835 82 3 834 12 14 0 81 1 109 1417 31 107 0 0 85
 101 836 82 3 835 12 13 0 81 1 85 1416 31 83 0 0 93 109 837 82 3 836 12 12 0 81
 1 93 1415 31 91 0 0 97 85 838 82 3 837 12 11 0 81 1 97 1414 31 95 0 0 105 93 83
9 82 3 838 12 10 0 81 1 105 1413 31 103 0 0 45 97 840 82 3 839 12 9 0 81 1 45 14
12 31 55 0 0 41 105 841 82 3 840 12 8 0 82 3 841 12 7 0 81 1 314 1105 31 309 0 0
 537 535 842 82 3 540 11 17 1 82 3 842 11 18 1 82 3 536 11 19 1 81 1 529 1888 31
 239 0 0 33 240 843 16 39 1821 844 ?29 230 239 241 230 239 1 81 1 844 1890 31 39
 0 0 240 0 845 81 1 240 1889 31 223 0 0 529 844 846 82 3 845 21 10 1 82 3 846 21
 9 1 81 1 33 1887 31 230 0 0 28 529 847 82 3 843 21 8 1 82 3 847 21 7 1 83 3 525
 .615686274509804 .811764705882353 .929411764705882 15 522 1609 0 507 516 848 17
 507 0 522 507 507 0 849 504 0 0 +15 848 1610 0 850 516 0 17 850 0 848 850 850 0
 503 500 0 0 -17 503 0 358 503 503 0 850 500 0 0 +15 358 1557 0 503 354 592 17 8
49 0 366 849 849 0 507 504 0 0 -15 366 1563 0 849 361 47 83 3 519 .6156862745098
04 .811764705882353 .929411764705882 82 3 512 21 2 1 82 3 400 11 3 1 83 3 386 .6
15686274509804 .811764705882353 .929411764705882 83 3 348 .615686274509804 .8117
64705882353 .929411764705882 83 3 341 .615686274509804 .811764705882353 .9294117
64705882 40 2 318 0 1 2 .000647081294710081 .266939869059106 ??.025 -.0515941722
939444 -.05 .0205435607626104 -.05 -.0494971831125282 41 1 319 L?.025 -.05159417
22939444 -.05 41 1 320 L?.0205435607626104 -.05 -.0494971831125282 204 8 321 4 1
734723475976805e-31 .0015941722939444 4.9697666267064 0 6.05847705163045 0 5.142
08864653611 -.000502816887471808 40 2 304 0 1 2 .000647081294710077 .26693986905
9106 ??.0434564392373896 -.05 -.0494971831125282 .039 -.0515941722939444 -.05 41
 1 305 L?.0434564392373896 -.05 -.0494971831125282 41 1 306 L?.039 -.05159417229
39444 -.05 204 8 307 4 .2247082555491375 0 4.282689314233265 -.00050281688747180
8 0 .001594172293944395 4.45501133406298 0 141 284 269 851 851 273 141 851 301 2
84 284 273 82 3 257 21 3 1 81 1 209 1884 31 207 0 0 214 32 852 82 3 217 21 0 0 8
1 1 32 1885 31 211 0 0 209 28 853 82 3 852 21 1 0 82 3 853 21 2 0 82 3 46 12 6 0
 82 3 34 21 3 0 19 18 254 0 1 0 10 6 0 S0 74 4 CI16 index_map_offset0 0 1 dCCZ20
 16 5 0 0 844 664 14 2 523 0 0 0 0 0 0 0 0 0 0 0 0 0 0 0 80 1 13 338 854 8040 0
 0 0 0 3 5 0 0 0 TTTFFFFFFFFFFFFFF2 83 3 15 .615686274509804 .811764705882353 .9
29411764705882 79 17 854 SDL/TYSA_COLOUR_21 0 
